G04 #@! TF.GenerationSoftware,KiCad,Pcbnew,5.1.5-52549c5~84~ubuntu18.04.1*
G04 #@! TF.CreationDate,2020-04-02T09:49:11-07:00*
G04 #@! TF.ProjectId,redox_rev1,7265646f-785f-4726-9576-312e6b696361,1.0*
G04 #@! TF.SameCoordinates,Original*
G04 #@! TF.FileFunction,Soldermask,Bot*
G04 #@! TF.FilePolarity,Negative*
%FSLAX46Y46*%
G04 Gerber Fmt 4.6, Leading zero omitted, Abs format (unit mm)*
G04 Created by KiCad (PCBNEW 5.1.5-52549c5~84~ubuntu18.04.1) date 2020-04-02 09:49:11*
%MOMM*%
%LPD*%
G04 APERTURE LIST*
%ADD10C,2.500000*%
%ADD11R,1.198880X0.698500*%
%ADD12R,0.698500X1.198880*%
%ADD13C,4.000000*%
%ADD14O,1.700000X1.700000*%
%ADD15R,1.700000X1.700000*%
%ADD16R,1.200000X1.200000*%
%ADD17C,1.600000*%
%ADD18R,1.600000X1.600000*%
%ADD19C,0.100000*%
%ADD20C,0.900000*%
%ADD21R,1.250000X2.500000*%
%ADD22O,1.600000X2.200000*%
%ADD23C,1.500000*%
%ADD24R,1.752600X1.752600*%
%ADD25C,1.752600*%
%ADD26R,1.270000X5.080000*%
%ADD27R,3.960000X3.960000*%
G04 APERTURE END LIST*
D10*
X134619724Y-67309328D02*
X134580276Y-66730672D01*
X129080453Y-66229954D02*
X128269547Y-64770046D01*
X135079547Y-66229954D02*
X135890453Y-64770046D01*
X129540276Y-67309328D02*
X129579724Y-66730672D01*
D11*
X213492080Y-67246500D03*
X198495920Y-60647580D03*
X198495920Y-59547760D03*
D12*
X212041740Y-69596000D03*
D11*
X213492080Y-65046860D03*
X213492080Y-63947040D03*
X213492080Y-62847220D03*
X213492080Y-61747400D03*
X213492080Y-60647580D03*
X213492080Y-59547760D03*
X213492080Y-58447940D03*
X213492080Y-57348120D03*
X213492080Y-56248300D03*
X198495920Y-55148480D03*
X198495920Y-56248300D03*
X198495920Y-57348120D03*
X198495920Y-58447940D03*
X198495920Y-61747400D03*
X198495920Y-62847220D03*
X198495920Y-63947040D03*
X198495920Y-65046860D03*
X198495920Y-66146680D03*
X198495920Y-67246500D03*
D12*
X199946260Y-69596000D03*
X201046080Y-69596000D03*
X202145900Y-69596000D03*
X203245720Y-69596000D03*
X204345540Y-69596000D03*
X205445360Y-69596000D03*
X206542640Y-69596000D03*
X207642460Y-69596000D03*
X208742280Y-69596000D03*
X209842100Y-69596000D03*
X210941920Y-69596000D03*
D11*
X213492080Y-55148480D03*
X213492080Y-66146680D03*
D13*
X163576000Y-144526000D03*
X227330000Y-151638000D03*
X85344000Y-53848000D03*
X211328000Y-86868000D03*
D14*
X204724000Y-110236000D03*
X204724000Y-112776000D03*
X204724000Y-115316000D03*
D15*
X204724000Y-117856000D03*
D16*
X93015000Y-74930000D03*
X89865000Y-74930000D03*
D17*
X95340000Y-74930000D03*
D18*
X87540000Y-74930000D03*
D16*
X114605000Y-74930000D03*
X111455000Y-74930000D03*
D17*
X116930000Y-74930000D03*
D18*
X109130000Y-74930000D03*
D16*
X133655000Y-70485000D03*
X130505000Y-70485000D03*
D17*
X135980000Y-70485000D03*
D18*
X128180000Y-70485000D03*
D16*
X152705000Y-67945000D03*
X149555000Y-67945000D03*
D17*
X155030000Y-67945000D03*
D18*
X147230000Y-67945000D03*
D16*
X171755000Y-70485000D03*
X168605000Y-70485000D03*
D17*
X174080000Y-70485000D03*
D18*
X166280000Y-70485000D03*
D16*
X190805000Y-72390000D03*
X187655000Y-72390000D03*
D17*
X193130000Y-72390000D03*
D18*
X185330000Y-72390000D03*
D16*
X209855000Y-81915000D03*
X206705000Y-81915000D03*
D17*
X212180000Y-81915000D03*
D18*
X204380000Y-81915000D03*
D16*
X93015000Y-93980000D03*
X89865000Y-93980000D03*
D17*
X95340000Y-93980000D03*
D18*
X87540000Y-93980000D03*
D16*
X114605000Y-93980000D03*
X111455000Y-93980000D03*
D17*
X116930000Y-93980000D03*
D18*
X109130000Y-93980000D03*
D16*
X133655000Y-89535000D03*
X130505000Y-89535000D03*
D17*
X135980000Y-89535000D03*
D18*
X128180000Y-89535000D03*
D16*
X152705000Y-86995000D03*
X149555000Y-86995000D03*
D17*
X155030000Y-86995000D03*
D18*
X147230000Y-86995000D03*
D16*
X171755000Y-89535000D03*
X168605000Y-89535000D03*
D17*
X174080000Y-89535000D03*
D18*
X166280000Y-89535000D03*
D16*
X190805000Y-91440000D03*
X187655000Y-91440000D03*
D17*
X193130000Y-91440000D03*
D18*
X185330000Y-91440000D03*
D16*
X209855000Y-106680000D03*
X206705000Y-106680000D03*
D17*
X212180000Y-106680000D03*
D18*
X204380000Y-106680000D03*
D16*
X93015000Y-113030000D03*
X89865000Y-113030000D03*
D17*
X95340000Y-113030000D03*
D18*
X87540000Y-113030000D03*
D16*
X114605000Y-113030000D03*
X111455000Y-113030000D03*
D17*
X116930000Y-113030000D03*
D18*
X109130000Y-113030000D03*
D16*
X133655000Y-108585000D03*
X130505000Y-108585000D03*
D17*
X135980000Y-108585000D03*
D18*
X128180000Y-108585000D03*
D16*
X152705000Y-106045000D03*
X149555000Y-106045000D03*
D17*
X155030000Y-106045000D03*
D18*
X147230000Y-106045000D03*
D16*
X171755000Y-108585000D03*
X168605000Y-108585000D03*
D17*
X174080000Y-108585000D03*
D18*
X166280000Y-108585000D03*
D16*
X190805000Y-110490000D03*
X187655000Y-110490000D03*
D17*
X193130000Y-110490000D03*
D18*
X185330000Y-110490000D03*
D19*
G36*
X209828605Y-135187885D02*
G01*
X209228605Y-136227115D01*
X208189375Y-135627115D01*
X208789375Y-134587885D01*
X209828605Y-135187885D01*
G37*
G36*
X207100625Y-133612885D02*
G01*
X206500625Y-134652115D01*
X205461395Y-134052115D01*
X206061395Y-133012885D01*
X207100625Y-133612885D01*
G37*
D17*
X211022499Y-136570000D03*
D19*
G36*
X205360321Y-132377180D02*
G01*
X204560321Y-133762820D01*
X203174681Y-132962820D01*
X203974681Y-131577180D01*
X205360321Y-132377180D01*
G37*
D16*
X93015000Y-132080000D03*
X89865000Y-132080000D03*
D17*
X95340000Y-132080000D03*
D18*
X87540000Y-132080000D03*
D16*
X114605000Y-132080000D03*
X111455000Y-132080000D03*
D17*
X116930000Y-132080000D03*
D18*
X109130000Y-132080000D03*
D16*
X133655000Y-127635000D03*
X130505000Y-127635000D03*
D17*
X135980000Y-127635000D03*
D18*
X128180000Y-127635000D03*
D16*
X152705000Y-125095000D03*
X149555000Y-125095000D03*
D17*
X155030000Y-125095000D03*
D18*
X147230000Y-125095000D03*
D16*
X171755000Y-127635000D03*
X168605000Y-127635000D03*
D17*
X174080000Y-127635000D03*
D18*
X166280000Y-127635000D03*
D16*
X190805000Y-129540000D03*
X187655000Y-129540000D03*
D17*
X193130000Y-129540000D03*
D18*
X185330000Y-129540000D03*
D19*
G36*
X226338605Y-144712885D02*
G01*
X225738605Y-145752115D01*
X224699375Y-145152115D01*
X225299375Y-144112885D01*
X226338605Y-144712885D01*
G37*
G36*
X223610625Y-143137885D02*
G01*
X223010625Y-144177115D01*
X221971395Y-143577115D01*
X222571395Y-142537885D01*
X223610625Y-143137885D01*
G37*
D17*
X227532499Y-146095000D03*
D19*
G36*
X221870321Y-141902180D02*
G01*
X221070321Y-143287820D01*
X219684681Y-142487820D01*
X220484681Y-141102180D01*
X221870321Y-141902180D01*
G37*
D16*
X103505000Y-141300000D03*
X103505000Y-144450000D03*
D17*
X103505000Y-138975000D03*
D18*
X103505000Y-146775000D03*
D16*
X122555000Y-139395000D03*
X122555000Y-142545000D03*
D17*
X122555000Y-137070000D03*
D18*
X122555000Y-144870000D03*
D16*
X141605000Y-136855000D03*
X141605000Y-140005000D03*
D17*
X141605000Y-134530000D03*
D18*
X141605000Y-142330000D03*
D16*
X160655000Y-134315000D03*
X160655000Y-137465000D03*
D17*
X160655000Y-131990000D03*
D18*
X160655000Y-139790000D03*
D19*
G36*
X187943376Y-142269820D02*
G01*
X189102487Y-142580403D01*
X188791904Y-143739514D01*
X187632793Y-143428931D01*
X187943376Y-142269820D01*
G37*
G36*
X187128096Y-145312486D02*
G01*
X188287207Y-145623069D01*
X187976624Y-146782180D01*
X186817513Y-146471597D01*
X187128096Y-145312486D01*
G37*
D17*
X188969394Y-140758889D03*
D19*
G36*
X186384921Y-147313315D02*
G01*
X187930402Y-147727426D01*
X187516291Y-149272907D01*
X185970810Y-148858796D01*
X186384921Y-147313315D01*
G37*
G36*
X197509605Y-156523885D02*
G01*
X196909605Y-157563115D01*
X195870375Y-156963115D01*
X196470375Y-155923885D01*
X197509605Y-156523885D01*
G37*
G36*
X194781625Y-154948885D02*
G01*
X194181625Y-155988115D01*
X193142395Y-155388115D01*
X193742395Y-154348885D01*
X194781625Y-154948885D01*
G37*
D17*
X198703499Y-157906000D03*
D19*
G36*
X193041321Y-153713180D02*
G01*
X192241321Y-155098820D01*
X190855681Y-154298820D01*
X191655681Y-152913180D01*
X193041321Y-153713180D01*
G37*
G36*
X214273605Y-166175885D02*
G01*
X213673605Y-167215115D01*
X212634375Y-166615115D01*
X213234375Y-165575885D01*
X214273605Y-166175885D01*
G37*
G36*
X211545625Y-164600885D02*
G01*
X210945625Y-165640115D01*
X209906395Y-165040115D01*
X210506395Y-164000885D01*
X211545625Y-164600885D01*
G37*
D17*
X215467499Y-167558000D03*
D19*
G36*
X209805321Y-163365180D02*
G01*
X209005321Y-164750820D01*
X207619681Y-163950820D01*
X208419681Y-162565180D01*
X209805321Y-163365180D01*
G37*
D13*
X102870000Y-128905000D03*
D10*
X175391441Y-136041416D02*
X175279779Y-136610566D01*
X180462604Y-138517681D02*
X180868028Y-140137721D01*
X174667925Y-136965002D02*
X173506797Y-138165286D01*
X180297812Y-137356074D02*
X180109940Y-137904804D01*
X88900276Y-118745672D02*
X88939724Y-119324328D01*
X94439547Y-119825046D02*
X95250453Y-121284954D01*
X88440453Y-119825046D02*
X87629547Y-121284954D01*
X93979724Y-118745672D02*
X93940276Y-119324328D01*
X88900276Y-99695672D02*
X88939724Y-100274328D01*
X94439547Y-100775046D02*
X95250453Y-102234954D01*
X88440453Y-100775046D02*
X87629547Y-102234954D01*
X93979724Y-99695672D02*
X93940276Y-100274328D01*
X88900276Y-80645672D02*
X88939724Y-81224328D01*
X94439547Y-81725046D02*
X95250453Y-83184954D01*
X88440453Y-81725046D02*
X87629547Y-83184954D01*
X93979724Y-80645672D02*
X93940276Y-81224328D01*
X93979724Y-71754328D02*
X93940276Y-71175672D01*
X88440453Y-70674954D02*
X87629547Y-69215046D01*
X94439547Y-70674954D02*
X95250453Y-69215046D01*
X88900276Y-71754328D02*
X88939724Y-71175672D01*
X228940198Y-131491310D02*
X228685034Y-132012166D01*
X233197660Y-135195712D02*
X233169972Y-136865482D01*
X228002294Y-132196165D02*
X226570074Y-133055029D01*
X233339130Y-134031034D02*
X233015638Y-134512442D01*
X148590276Y-130810672D02*
X148629724Y-131389328D01*
X154129547Y-131890046D02*
X154940453Y-133349954D01*
X148130453Y-131890046D02*
X147319547Y-133349954D01*
X153669724Y-130810672D02*
X153630276Y-131389328D01*
X129540276Y-133350672D02*
X129579724Y-133929328D01*
X135079547Y-134430046D02*
X135890453Y-135889954D01*
X129080453Y-134430046D02*
X128269547Y-135889954D01*
X134619724Y-133350672D02*
X134580276Y-133929328D01*
X110490276Y-137795672D02*
X110529724Y-138374328D01*
X116029547Y-138875046D02*
X116840453Y-140334954D01*
X110030453Y-138875046D02*
X109219547Y-140334954D01*
X115569724Y-137795672D02*
X115530276Y-138374328D01*
X91440276Y-137795672D02*
X91479724Y-138374328D01*
X96979547Y-138875046D02*
X97790453Y-140334954D01*
X90980453Y-138875046D02*
X90169547Y-140334954D01*
X96519724Y-137795672D02*
X96480276Y-138374328D01*
X186690276Y-116205672D02*
X186729724Y-116784328D01*
X192229547Y-117285046D02*
X193040453Y-118744954D01*
X186230453Y-117285046D02*
X185419547Y-118744954D01*
X191769724Y-116205672D02*
X191730276Y-116784328D01*
X167640276Y-114300672D02*
X167679724Y-114879328D01*
X173179547Y-115380046D02*
X173990453Y-116839954D01*
X167180453Y-115380046D02*
X166369547Y-116839954D01*
X172719724Y-114300672D02*
X172680276Y-114879328D01*
X148590276Y-111760672D02*
X148629724Y-112339328D01*
X154129547Y-112840046D02*
X154940453Y-114299954D01*
X148130453Y-112840046D02*
X147319547Y-114299954D01*
X153669724Y-111760672D02*
X153630276Y-112339328D01*
X129540276Y-114300672D02*
X129579724Y-114879328D01*
X135079547Y-115380046D02*
X135890453Y-116839954D01*
X129080453Y-115380046D02*
X128269547Y-116839954D01*
X134619724Y-114300672D02*
X134580276Y-114879328D01*
X110490276Y-118745672D02*
X110529724Y-119324328D01*
X116029547Y-119825046D02*
X116840453Y-121284954D01*
X110030453Y-119825046D02*
X109219547Y-121284954D01*
X115569724Y-118745672D02*
X115530276Y-119324328D01*
X212430198Y-121966310D02*
X212175034Y-122487166D01*
X216687660Y-125670712D02*
X216659972Y-127340482D01*
X211492294Y-122671165D02*
X210060074Y-123530029D01*
X216829130Y-124506034D02*
X216505638Y-124987442D01*
X186690276Y-97155672D02*
X186729724Y-97734328D01*
X192229547Y-98235046D02*
X193040453Y-99694954D01*
X186230453Y-98235046D02*
X185419547Y-99694954D01*
X191769724Y-97155672D02*
X191730276Y-97734328D01*
X167640276Y-95250672D02*
X167679724Y-95829328D01*
X173179547Y-96330046D02*
X173990453Y-97789954D01*
X167180453Y-96330046D02*
X166369547Y-97789954D01*
X172719724Y-95250672D02*
X172680276Y-95829328D01*
X148590276Y-92710672D02*
X148629724Y-93289328D01*
X154129547Y-93790046D02*
X154940453Y-95249954D01*
X148130453Y-93790046D02*
X147319547Y-95249954D01*
X153669724Y-92710672D02*
X153630276Y-93289328D01*
X129540276Y-95250672D02*
X129579724Y-95829328D01*
X135079547Y-96330046D02*
X135890453Y-97789954D01*
X129080453Y-96330046D02*
X128269547Y-97789954D01*
X134619724Y-95250672D02*
X134580276Y-95829328D01*
X110490276Y-99695672D02*
X110529724Y-100274328D01*
X116029547Y-100775046D02*
X116840453Y-102234954D01*
X110030453Y-100775046D02*
X109219547Y-102234954D01*
X115569724Y-99695672D02*
X115530276Y-100274328D01*
X186690276Y-78105672D02*
X186729724Y-78684328D01*
X192229547Y-79185046D02*
X193040453Y-80644954D01*
X186230453Y-79185046D02*
X185419547Y-80644954D01*
X191769724Y-78105672D02*
X191730276Y-78684328D01*
X167640276Y-76200672D02*
X167679724Y-76779328D01*
X173179547Y-77280046D02*
X173990453Y-78739954D01*
X167180453Y-77280046D02*
X166369547Y-78739954D01*
X172719724Y-76200672D02*
X172680276Y-76779328D01*
X148590276Y-73660672D02*
X148629724Y-74239328D01*
X154129547Y-74740046D02*
X154940453Y-76199954D01*
X148130453Y-74740046D02*
X147319547Y-76199954D01*
X153669724Y-73660672D02*
X153630276Y-74239328D01*
X129540276Y-76200672D02*
X129579724Y-76779328D01*
X135079547Y-77280046D02*
X135890453Y-78739954D01*
X129080453Y-77280046D02*
X128269547Y-78739954D01*
X134619724Y-76200672D02*
X134580276Y-76779328D01*
X110490276Y-80645672D02*
X110529724Y-81224328D01*
X116029547Y-81725046D02*
X116840453Y-83184954D01*
X110030453Y-81725046D02*
X109219547Y-83184954D01*
X115569724Y-80645672D02*
X115530276Y-81224328D01*
X210819724Y-78739328D02*
X210780276Y-78160672D01*
X205280453Y-77659954D02*
X204469547Y-76200046D01*
X211279547Y-77659954D02*
X212090453Y-76200046D01*
X205740276Y-78739328D02*
X205779724Y-78160672D01*
X191769724Y-69214328D02*
X191730276Y-68635672D01*
X186230453Y-68134954D02*
X185419547Y-66675046D01*
X192229547Y-68134954D02*
X193040453Y-66675046D01*
X186690276Y-69214328D02*
X186729724Y-68635672D01*
X172719724Y-67309328D02*
X172680276Y-66730672D01*
X167180453Y-66229954D02*
X166369547Y-64770046D01*
X173179547Y-66229954D02*
X173990453Y-64770046D01*
X167640276Y-67309328D02*
X167679724Y-66730672D01*
X153669724Y-64769328D02*
X153630276Y-64190672D01*
X148130453Y-63689954D02*
X147319547Y-62230046D01*
X154129547Y-63689954D02*
X154940453Y-62230046D01*
X148590276Y-64769328D02*
X148629724Y-64190672D01*
X115569724Y-71754328D02*
X115530276Y-71175672D01*
X110030453Y-70674954D02*
X109219547Y-69215046D01*
X116029547Y-70674954D02*
X116840453Y-69215046D01*
X110490276Y-71754328D02*
X110529724Y-71175672D01*
X213359328Y-95250276D02*
X212780672Y-95289724D01*
X212279954Y-100789547D02*
X210820046Y-101600453D01*
X212279954Y-94790453D02*
X210820046Y-93979547D01*
X213359328Y-100329724D02*
X212780672Y-100290276D01*
X222203690Y-158455198D02*
X221682834Y-158200034D01*
X218499288Y-162712660D02*
X216829518Y-162684972D01*
X221498835Y-157517294D02*
X220639971Y-156085074D01*
X219663966Y-162854130D02*
X219182558Y-162530638D01*
X205693690Y-148930198D02*
X205172834Y-148675034D01*
X201989288Y-153187660D02*
X200319518Y-153159972D01*
X204988835Y-147992294D02*
X204129971Y-146560074D01*
X203153966Y-153329130D02*
X202672558Y-153005638D01*
D20*
X117453200Y-51104800D03*
X124253200Y-51104800D03*
D21*
X115876700Y-53854800D03*
X118376700Y-53854800D03*
X120876700Y-53854800D03*
D20*
X114976700Y-51104800D03*
X121776700Y-51104800D03*
D22*
X170180000Y-54815600D03*
D23*
X167880000Y-50215600D03*
X167880000Y-57215600D03*
D22*
X170180000Y-51815600D03*
X170180000Y-58815600D03*
X165580000Y-59915600D03*
X174780000Y-59915600D03*
D23*
X172480000Y-50215600D03*
X172480000Y-57215600D03*
D24*
X143764000Y-53340000D03*
D25*
X143764000Y-55880000D03*
X143764000Y-58420000D03*
X143764000Y-60960000D03*
X143764000Y-63500000D03*
X143764000Y-66040000D03*
X143764000Y-68580000D03*
X143764000Y-71120000D03*
X143764000Y-73660000D03*
X143764000Y-76200000D03*
X143764000Y-78740000D03*
X159004000Y-81280000D03*
X159004000Y-78740000D03*
X159004000Y-76200000D03*
X159004000Y-73660000D03*
X159004000Y-71120000D03*
X159004000Y-68580000D03*
X159004000Y-66040000D03*
X159004000Y-63500000D03*
X159004000Y-60960000D03*
X159004000Y-58420000D03*
X159004000Y-55880000D03*
X143764000Y-81280000D03*
X159004000Y-53340000D03*
D26*
X91356680Y-57668160D03*
X113326680Y-57668160D03*
D27*
X102341680Y-57668160D03*
D19*
G36*
X151604505Y-54045204D02*
G01*
X151628773Y-54048804D01*
X151652572Y-54054765D01*
X151675671Y-54063030D01*
X151697850Y-54073520D01*
X151718893Y-54086132D01*
X151738599Y-54100747D01*
X151756777Y-54117223D01*
X151773253Y-54135401D01*
X151787868Y-54155107D01*
X151800480Y-54176150D01*
X151810970Y-54198329D01*
X151819235Y-54221428D01*
X151825196Y-54245227D01*
X151828796Y-54269495D01*
X151830000Y-54293999D01*
X151830000Y-54944001D01*
X151828796Y-54968505D01*
X151825196Y-54992773D01*
X151819235Y-55016572D01*
X151810970Y-55039671D01*
X151800480Y-55061850D01*
X151787868Y-55082893D01*
X151773253Y-55102599D01*
X151756777Y-55120777D01*
X151738599Y-55137253D01*
X151718893Y-55151868D01*
X151697850Y-55164480D01*
X151675671Y-55174970D01*
X151652572Y-55183235D01*
X151628773Y-55189196D01*
X151604505Y-55192796D01*
X151580001Y-55194000D01*
X150679999Y-55194000D01*
X150655495Y-55192796D01*
X150631227Y-55189196D01*
X150607428Y-55183235D01*
X150584329Y-55174970D01*
X150562150Y-55164480D01*
X150541107Y-55151868D01*
X150521401Y-55137253D01*
X150503223Y-55120777D01*
X150486747Y-55102599D01*
X150472132Y-55082893D01*
X150459520Y-55061850D01*
X150449030Y-55039671D01*
X150440765Y-55016572D01*
X150434804Y-54992773D01*
X150431204Y-54968505D01*
X150430000Y-54944001D01*
X150430000Y-54293999D01*
X150431204Y-54269495D01*
X150434804Y-54245227D01*
X150440765Y-54221428D01*
X150449030Y-54198329D01*
X150459520Y-54176150D01*
X150472132Y-54155107D01*
X150486747Y-54135401D01*
X150503223Y-54117223D01*
X150521401Y-54100747D01*
X150541107Y-54086132D01*
X150562150Y-54073520D01*
X150584329Y-54063030D01*
X150607428Y-54054765D01*
X150631227Y-54048804D01*
X150655495Y-54045204D01*
X150679999Y-54044000D01*
X151580001Y-54044000D01*
X151604505Y-54045204D01*
G37*
G36*
X151604505Y-51995204D02*
G01*
X151628773Y-51998804D01*
X151652572Y-52004765D01*
X151675671Y-52013030D01*
X151697850Y-52023520D01*
X151718893Y-52036132D01*
X151738599Y-52050747D01*
X151756777Y-52067223D01*
X151773253Y-52085401D01*
X151787868Y-52105107D01*
X151800480Y-52126150D01*
X151810970Y-52148329D01*
X151819235Y-52171428D01*
X151825196Y-52195227D01*
X151828796Y-52219495D01*
X151830000Y-52243999D01*
X151830000Y-52894001D01*
X151828796Y-52918505D01*
X151825196Y-52942773D01*
X151819235Y-52966572D01*
X151810970Y-52989671D01*
X151800480Y-53011850D01*
X151787868Y-53032893D01*
X151773253Y-53052599D01*
X151756777Y-53070777D01*
X151738599Y-53087253D01*
X151718893Y-53101868D01*
X151697850Y-53114480D01*
X151675671Y-53124970D01*
X151652572Y-53133235D01*
X151628773Y-53139196D01*
X151604505Y-53142796D01*
X151580001Y-53144000D01*
X150679999Y-53144000D01*
X150655495Y-53142796D01*
X150631227Y-53139196D01*
X150607428Y-53133235D01*
X150584329Y-53124970D01*
X150562150Y-53114480D01*
X150541107Y-53101868D01*
X150521401Y-53087253D01*
X150503223Y-53070777D01*
X150486747Y-53052599D01*
X150472132Y-53032893D01*
X150459520Y-53011850D01*
X150449030Y-52989671D01*
X150440765Y-52966572D01*
X150434804Y-52942773D01*
X150431204Y-52918505D01*
X150430000Y-52894001D01*
X150430000Y-52243999D01*
X150431204Y-52219495D01*
X150434804Y-52195227D01*
X150440765Y-52171428D01*
X150449030Y-52148329D01*
X150459520Y-52126150D01*
X150472132Y-52105107D01*
X150486747Y-52085401D01*
X150503223Y-52067223D01*
X150521401Y-52050747D01*
X150541107Y-52036132D01*
X150562150Y-52023520D01*
X150584329Y-52013030D01*
X150607428Y-52004765D01*
X150631227Y-51998804D01*
X150655495Y-51995204D01*
X150679999Y-51994000D01*
X151580001Y-51994000D01*
X151604505Y-51995204D01*
G37*
G36*
X153636505Y-54054204D02*
G01*
X153660773Y-54057804D01*
X153684572Y-54063765D01*
X153707671Y-54072030D01*
X153729850Y-54082520D01*
X153750893Y-54095132D01*
X153770599Y-54109747D01*
X153788777Y-54126223D01*
X153805253Y-54144401D01*
X153819868Y-54164107D01*
X153832480Y-54185150D01*
X153842970Y-54207329D01*
X153851235Y-54230428D01*
X153857196Y-54254227D01*
X153860796Y-54278495D01*
X153862000Y-54302999D01*
X153862000Y-54953001D01*
X153860796Y-54977505D01*
X153857196Y-55001773D01*
X153851235Y-55025572D01*
X153842970Y-55048671D01*
X153832480Y-55070850D01*
X153819868Y-55091893D01*
X153805253Y-55111599D01*
X153788777Y-55129777D01*
X153770599Y-55146253D01*
X153750893Y-55160868D01*
X153729850Y-55173480D01*
X153707671Y-55183970D01*
X153684572Y-55192235D01*
X153660773Y-55198196D01*
X153636505Y-55201796D01*
X153612001Y-55203000D01*
X152711999Y-55203000D01*
X152687495Y-55201796D01*
X152663227Y-55198196D01*
X152639428Y-55192235D01*
X152616329Y-55183970D01*
X152594150Y-55173480D01*
X152573107Y-55160868D01*
X152553401Y-55146253D01*
X152535223Y-55129777D01*
X152518747Y-55111599D01*
X152504132Y-55091893D01*
X152491520Y-55070850D01*
X152481030Y-55048671D01*
X152472765Y-55025572D01*
X152466804Y-55001773D01*
X152463204Y-54977505D01*
X152462000Y-54953001D01*
X152462000Y-54302999D01*
X152463204Y-54278495D01*
X152466804Y-54254227D01*
X152472765Y-54230428D01*
X152481030Y-54207329D01*
X152491520Y-54185150D01*
X152504132Y-54164107D01*
X152518747Y-54144401D01*
X152535223Y-54126223D01*
X152553401Y-54109747D01*
X152573107Y-54095132D01*
X152594150Y-54082520D01*
X152616329Y-54072030D01*
X152639428Y-54063765D01*
X152663227Y-54057804D01*
X152687495Y-54054204D01*
X152711999Y-54053000D01*
X153612001Y-54053000D01*
X153636505Y-54054204D01*
G37*
G36*
X153636505Y-52004204D02*
G01*
X153660773Y-52007804D01*
X153684572Y-52013765D01*
X153707671Y-52022030D01*
X153729850Y-52032520D01*
X153750893Y-52045132D01*
X153770599Y-52059747D01*
X153788777Y-52076223D01*
X153805253Y-52094401D01*
X153819868Y-52114107D01*
X153832480Y-52135150D01*
X153842970Y-52157329D01*
X153851235Y-52180428D01*
X153857196Y-52204227D01*
X153860796Y-52228495D01*
X153862000Y-52252999D01*
X153862000Y-52903001D01*
X153860796Y-52927505D01*
X153857196Y-52951773D01*
X153851235Y-52975572D01*
X153842970Y-52998671D01*
X153832480Y-53020850D01*
X153819868Y-53041893D01*
X153805253Y-53061599D01*
X153788777Y-53079777D01*
X153770599Y-53096253D01*
X153750893Y-53110868D01*
X153729850Y-53123480D01*
X153707671Y-53133970D01*
X153684572Y-53142235D01*
X153660773Y-53148196D01*
X153636505Y-53151796D01*
X153612001Y-53153000D01*
X152711999Y-53153000D01*
X152687495Y-53151796D01*
X152663227Y-53148196D01*
X152639428Y-53142235D01*
X152616329Y-53133970D01*
X152594150Y-53123480D01*
X152573107Y-53110868D01*
X152553401Y-53096253D01*
X152535223Y-53079777D01*
X152518747Y-53061599D01*
X152504132Y-53041893D01*
X152491520Y-53020850D01*
X152481030Y-52998671D01*
X152472765Y-52975572D01*
X152466804Y-52951773D01*
X152463204Y-52927505D01*
X152462000Y-52903001D01*
X152462000Y-52252999D01*
X152463204Y-52228495D01*
X152466804Y-52204227D01*
X152472765Y-52180428D01*
X152481030Y-52157329D01*
X152491520Y-52135150D01*
X152504132Y-52114107D01*
X152518747Y-52094401D01*
X152535223Y-52076223D01*
X152553401Y-52059747D01*
X152573107Y-52045132D01*
X152594150Y-52032520D01*
X152616329Y-52022030D01*
X152639428Y-52013765D01*
X152663227Y-52007804D01*
X152687495Y-52004204D01*
X152711999Y-52003000D01*
X153612001Y-52003000D01*
X153636505Y-52004204D01*
G37*
M02*
